<?xml version="1.0" encoding="UTF-8" standalone="no"?>
<svg
   width="900"
   height="600"
   fill="#bc002d"
   version="1.1"
   id="svg852"
   sodipodi:docname="Flag of People Power Party of Korea (variant 2).svg"
   inkscape:version="1.1 (c68e22c387, 2021-05-23)"
   xmlns:inkscape="http://www.inkscape.org/namespaces/inkscape"
   xmlns:sodipodi="http://sodipodi.sourceforge.net/DTD/sodipodi-0.dtd"
   xmlns="http://www.w3.org/2000/svg"
   xmlns:svg="http://www.w3.org/2000/svg">
  <defs
     id="defs856">
    <style
       type="text/css"
       id="style1796">.a{fill:#00b1eb;}.b{fill:#fff;}</style>
  </defs>
  <sodipodi:namedview
     id="namedview854"
     pagecolor="#ffffff"
     bordercolor="#666666"
     borderopacity="1.0"
     inkscape:pageshadow="2"
     inkscape:pageopacity="0.0"
     inkscape:pagecheckerboard="0"
     showgrid="false"
     inkscape:zoom="1"
     inkscape:cx="495.5"
     inkscape:cy="286"
     inkscape:window-width="1920"
     inkscape:window-height="1046"
     inkscape:window-x="-11"
     inkscape:window-y="-11"
     inkscape:window-maximized="1"
     inkscape:current-layer="g911" />
  <path
     d="M 0,0 H 900 V 600 H 0 Z"
     id="path841"
     style="fill:#e61e2b;fill-opacity:1" />
  <g
     id="g911"
     transform="matrix(0.50829627,0,0,0.50829627,187.65779,56.907252)">
    <g
       id="g907"
       style="fill:#ffffff;fill-opacity:1">
      <polygon
         class="st0"
         points="678.4,810.5 528.6,814.7 530.9,862.5 680.3,856.3 "
         id="polygon873"
         style="fill:#ffffff;fill-opacity:1" />
      <g
         id="g877"
         style="fill:#ffffff;fill-opacity:1">
        <path
           class="st0"
           d="m 601.9,699.8 c 16.2,0 23.7,10.8 23.7,23.7 0,12.9 -8.2,23.7 -23.7,23.7 -15.6,0 -23.7,-10.8 -23.7,-23.7 0,-12.9 7.7,-23.7 23.7,-23.7 m 0,93.9 c 45.9,0 70.3,-32 70.3,-70.2 0,-38.2 -22.2,-70.2 -70.3,-70.2 -47.4,0 -70.3,32 -70.3,70.2 0,38.2 23.9,70.2 70.3,70.2"
           id="path875"
           style="fill:#ffffff;fill-opacity:1" />
      </g>
      <polygon
         class="st0"
         points="308.4,801.7 308.4,880.8 310.1,880.8 505.5,880.8 505.5,836.5 358.2,837.6 358.2,801.7 "
         id="polygon879"
         style="fill:#ffffff;fill-opacity:1" />
      <g
         id="g883"
         style="fill:#ffffff;fill-opacity:1">
        <path
           class="st0"
           d="m 342,746 v -42.7 h 39.2 v 38.5 c -11.3,2.7 -25.7,3.8 -39.2,4.2 m 39.1,41.1 h 46.2 V 658.9 H 295.5 v 128.6 c 0,0 44.8,-0.5 85.6,-6.8 z"
           id="path881"
           style="fill:#ffffff;fill-opacity:1" />
      </g>
      <rect
         x="449.10001"
         y="650"
         class="st0"
         width="49.900002"
         height="168.10001"
         id="rect885"
         style="fill:#ffffff;fill-opacity:1" />
      <rect
         x="687.5"
         y="650"
         class="st0"
         width="49.900002"
         height="230.7"
         id="rect887"
         style="fill:#ffffff;fill-opacity:1" />
      <g
         id="g891"
         style="fill:#ffffff;fill-opacity:1">
        <path
           class="st0"
           d="m 913.7,697.9 v -35.2 h -47.9 v -16.3 h -49.9 v 16.3 H 768 v 35.2 c 0,0 40.5,-2.4 71.2,-2.4 30.6,-0.1 74.5,2.4 74.5,2.4"
           id="path889"
           style="fill:#ffffff;fill-opacity:1" />
      </g>
      <path
         class="st0"
         d="m 921.5,844.3 h -90.8 v -10 h 90.8 z M 780.8,798.2 v 85.9 h 49.9 v -3.3 h 90.8 v 3.3 h 49.9 v -85.9 z"
         id="path893"
         style="fill:#ffffff;fill-opacity:1" />
      <g
         id="g897"
         style="fill:#ffffff;fill-opacity:1">
        <path
           class="st0"
           d="m 840.3,731.9 c 13.3,0 22.3,5 22.3,12 0,7 -9,12 -22.3,12 -13.3,0 -22.2,-5 -22.2,-12 -0.1,-6.9 8.9,-12 22.2,-12 m 0.5,57 c 46.7,0 68.7,-20.5 68.7,-44.9 0,-24.4 -19.9,-44.9 -68.7,-44.9 -48.2,0 -68.7,20.5 -68.7,44.9 0,24.4 21.6,44.9 68.7,44.9"
           id="path895"
           style="fill:#ffffff;fill-opacity:1" />
      </g>
      <rect
         x="921.5"
         y="650"
         class="st0"
         width="49.900002"
         height="140.7"
         id="rect899"
         style="fill:#ffffff;fill-opacity:1" />
      <polygon
         class="st0"
         points="135.8,785.7 135.8,801.7 71.2,801.7 71.2,846.2 202.5,843.7 202.5,880.9 252.4,880.9 252.4,801.7 185.7,801.7 185.7,785.7 270.7,785.7 270.7,742.7 53.4,742.7 53.4,785.7 "
         id="polygon901"
         style="fill:#ffffff;fill-opacity:1" />
      <g
         id="g905"
         style="fill:#ffffff;fill-opacity:1">
        <path
           class="st0"
           d="m 197.1,736.1 47.8,-0.2 C 255.7,693 256.4,656 256.4,656 H 72.1 v 44.1 l 133.6,-1.5 c -1.6,13.2 -4.3,27 -8.6,37.5"
           id="path903"
           style="fill:#ffffff;fill-opacity:1" />
      </g>
    </g>
    <polygon
       class="st1"
       points="711.2,139.9 454.4,139.9 326.2,268.2 326.2,524.8 583,524.8 711.2,396.5 "
       id="polygon909"
       transform="matrix(1.1508834,0,0,1.1508834,-78.263214,-50.146095)"
       style="fill:#ffffff;fill-opacity:1" />
  </g>
</svg>
