<svg xmlns="http://www.w3.org/2000/svg" width="446" height="201" version="1.2" viewBox="0 0 446 201"><path d="M0 0v200.3c29.9-11 83.4-19.5 148.7-23.2V0z" style="fill:#004098"/><path d="M148.7 0v177.1c23.5-1.4 48.4-2.1 74.3-2.1s50.8.7 74.3 2.1V0z" style="fill:#0073cf"/><path d="M297.3 0v177.1c65.3 3.7 118.8 12.2 148.7 23.2V0z" style="fill:#06275e"/><path fill-rule="evenodd" d="M185.6 70c0-2.2.5-4.4 1.4-6.2h-5V52.1h17.4V45h16.9v7.1h17.5v11.7h-5.1c.9 1.8 1.3 4 1.3 6.2v6.4c0 11.5-8.5 18.4-22.2 18.4-13.6 0-22.2-6.9-22.2-18.4zm62-24.5h17.1v49.6h-17.1v-7.8H236V74.7h11.6v-6.2H236V55.8h11.6zm-32.7 24.2c0-4.2-2.7-6.4-7.1-6.4-4.3 0-7 2.2-7 6.4v6c0 4 2 6.5 7 6.5 4.4 0 7.1-2.5 7.1-6.5zm-25.6 41.7v-13h75v30.9h-17.2v-17.9z" style="fill:#e3e5e6"/><path fill-rule="evenodd" d="M72.8 83.2q-5.6 6.1-13.7 9.5Q51 96.1 42 96.2V84.3q8.3-.2 15.1-4.3 6.9-4.3 9.5-11.4H43.2V56.8h59.7v11.8H80.7q-.4 2-1.5 4.7l26.5 13-5.9 10.5zm6.7 23.3h26.8v12.1H39.7v-12.1h26.7V93.6h13.1zm79.9-29.2v-11h-45.3V55.2h58.5v22.1zm17.4 13.5h-26.7v7.3H173v23.7h-13.3V109h-45.9V98.1H137v-7.3h-26.7V79.9h66.5zm156.4-35.6v48.7h-13.1V55.2zm-39.8 26.4q-4.3 5.9-10.2 9.5-5.9 3.5-12.7 3.8v-12q5.1-.7 9.1-4.4 4.1-3.7 6.4-9.7 2.3-6.1 2.4-13.3l13 .8q0 7.8-2.6 15.1l19 13.4-7.7 9.2zm-5.7 27.7h46.5V121h-59.8V97.9h13.3zm114.2-43.1h7.7v12.6h-7.7v12.7h-13V55.3h13zm-16.1 20.3q-2.5 1.1-6.7 1.7-4.3.6-9 .6h-28.4V56h40.4v10.7h-27.4v11.5h16q4.5 0 8.5-.5 4.1-.7 6.6-1.7zm-12.9 5.9q13.5 0 21.6 3.5 8.1 3.5 8.1 11.2 0 7.7-8.1 11.2-8.1 3.5-21.6 3.5-13.5 0-21.5-3.5-8.1-3.5-8.1-11.2 0-7.7 8.1-11.2 8-3.5 21.5-3.5zm0 19q7.1 0 11.3-1 4.3-1.1 4.3-3.3 0-2.2-4.3-3.2-4.3-1.1-11.3-1.1-7 0-11.3 1.1-4.3 1-4.3 3.2t4.2 3.3q4.3 1 11.4 1z" style="fill:#fff"/></svg>